# xmcd CD database file
#
# Track frame offsets:
#	150
#	15905
#	29765
#	47122
#	59805
#	74152
#	88805
#	102380
#	116742
#	129187
#
# Disc length: 2024 seconds
#
# Revision: 2
# Processed by: cddbd v1.4PL0 Copyright (c) Steve Scherf et al.
# Submitted via: CDex 1.40Release
#
DISCID=9307e60a
DTITLE=Oak Ridge Boys - The Oak Ridge Boys Have Arrived
DYEAR=1979
DGENRE=Country
TTITLE0=Sail Away
TTITLE1=There Must Be Something About Me That She Loves
TTITLE2=Sometimes the Rain Won't Let Me Sleep
TTITLE3=I Gotta Get Over This
TTITLE4=My Radio Sure Sounds Good To Me
TTITLE5=Dream On
TTITLE6=Leaving Louisana in the Broad Daylight
TTITLE7=Every Now and Then
TTITLE8=Dig a Little Deeper in the Well
TTITLE9=Dancing the Night Away
EXTD=YEAR: 1979 ID3G: 2
EXTT0=
EXTT1=
EXTT2=
EXTT3=
EXTT4=
EXTT5=
EXTT6=
EXTT7=
EXTT8=
EXTT9=
PLAYORDER=
